<svg width="150" height="200" viewBox="0 0 150 200" fill="none" xmlns="http://www.w3.org/2000/svg">
<mask id="mask0_98_2" style="mask-type:alpha" maskUnits="userSpaceOnUse" x="0" y="0" width="150" height="147">
<path d="M149.445 73.4117C149.445 113.956 115.991 146.823 74.7227 146.823C33.4545 146.823 0 113.956 0 73.4117C0 32.8676 33.4545 0 74.7227 0C115.991 0 149.445 32.8676 149.445 73.4117Z" fill="#FFC533"/>
</mask>
<g mask="url(#mask0_98_2)">
<ellipse cx="74.7227" cy="73.4117" rx="74.7227" ry="73.4117" fill="#FFC533"/>
<path d="M102.874 117.983C102.874 153.079 74.4233 181.529 39.3277 181.529C4.2321 181.529 -24.2185 153.079 -24.2185 117.983C-24.2185 82.8876 4.2321 54.437 39.3277 54.437C74.4233 54.437 102.874 82.8876 102.874 117.983Z" fill="#08C8F6" stroke="#3E3E3E" stroke-width="4"/>
<path d="M171.042 111.429C171.042 142.947 146.071 168.42 115.361 168.42C84.6519 168.42 59.6807 142.947 59.6807 111.429C59.6807 79.9104 84.6519 54.437 115.361 54.437C146.071 54.437 171.042 79.9104 171.042 111.429Z" fill="#08C8F6" stroke="#3E3E3E" stroke-width="4"/>
<path d="M192.017 136.336C192.017 165.64 168.261 189.395 138.958 189.395C109.654 189.395 85.8991 165.64 85.8991 136.336C85.8991 107.033 109.654 83.2773 138.958 83.2773C168.261 83.2773 192.017 107.033 192.017 136.336Z" fill="#08C8F6" stroke="#3D3D3D" stroke-width="4"/>
<path d="M126.471 146.823C126.471 176.127 102.715 199.882 73.4117 199.882C44.1081 199.882 20.3529 176.127 20.3529 146.823C20.3529 117.52 44.1081 93.7646 73.4117 93.7646C102.715 93.7646 126.471 117.52 126.471 146.823Z" fill="#08C8F6" stroke="#3E3E3E" stroke-width="4"/>
</g>
<path d="M37.3491 199.413H28.0922V166.636H31.7838C32.7719 166.636 34.2635 166.599 36.2584 166.524C38.2533 166.431 39.894 166.384 41.1805 166.384C44.7975 166.384 47.5382 167.345 49.4026 169.265C51.267 171.185 52.1992 174.066 52.1992 177.907C52.1992 180.218 51.8916 182.325 51.2764 184.227C50.6797 186.11 49.8687 187.657 48.8433 188.869C47.8178 190.081 46.6526 191.013 45.3475 191.666C44.0424 192.319 42.6627 192.645 41.2085 192.645C41.022 192.645 40.8262 192.645 40.6212 192.645C40.4347 192.645 40.2576 192.645 40.0898 192.645C39.9406 192.626 39.7542 192.617 39.5305 192.617C39.3254 192.598 39.1576 192.589 39.0271 192.589C38.9152 192.57 38.7474 192.561 38.5237 192.561C38.3186 192.542 38.1788 192.533 38.1042 192.533C38.0296 192.533 37.8898 192.524 37.6847 192.505C37.4796 192.486 37.3677 192.477 37.3491 192.477V199.413ZM43.0263 176.676C43.0263 175.296 42.6534 174.178 41.9076 173.32C41.1618 172.462 40.0898 172.034 38.6915 172.034H37.3491V186.576H38.3839C39.8567 186.576 40.994 186.082 41.7957 185.094C42.6161 184.106 43.0263 182.679 43.0263 180.815V176.676Z" fill="black"/>
<path d="M66.9795 200C65.0591 200 63.3532 199.814 61.8616 199.441C60.3887 199.068 59.1769 198.564 58.226 197.93C57.2938 197.297 56.52 196.514 55.9048 195.581C55.3082 194.63 54.8887 193.633 54.6463 192.589C54.4039 191.545 54.2827 190.389 54.2827 189.121V166.636H64.2388V187.863C64.2388 190.23 64.4811 191.862 64.9659 192.757C65.4693 193.633 66.1964 194.071 67.1473 194.071C67.6693 194.071 68.1261 193.987 68.5176 193.819C68.9092 193.633 69.2727 193.325 69.6083 192.897C69.9439 192.449 70.1956 191.815 70.3634 190.995C70.5498 190.156 70.6431 189.14 70.6431 187.946V166.636H79.4804V189.289C79.4804 190.538 79.3686 191.666 79.1448 192.673C78.9398 193.68 78.5482 194.658 77.9703 195.609C77.4109 196.541 76.6652 197.325 75.7329 197.958C74.8194 198.574 73.6168 199.068 72.1253 199.441C70.6524 199.814 68.9371 200 66.9795 200Z" fill="black"/>
<path d="M99.0899 199.413C98.8662 199.133 98.3814 198.042 97.6356 196.141C96.9085 194.22 96.0509 192.058 95.0627 189.652C94.0932 187.229 93.2356 185.392 92.4898 184.143V199.413H83.233V166.636H92.4898V182.325L99.4535 166.636H108.766L100.432 182.018C100.973 182.39 101.691 183.407 102.586 185.066C103.481 186.725 104.32 188.469 105.103 190.296C105.886 192.123 106.697 193.959 107.536 195.805C108.375 197.632 108.99 198.835 109.382 199.413H99.0899Z" fill="black"/>
<path d="M110.928 199.413V166.636H120.465V199.413H110.928Z" fill="black"/>
</svg>
