<svg width="395" height="200" viewBox="0 0 395 200" fill="none" xmlns="http://www.w3.org/2000/svg">
<g clip-path="url(#clip0_110_22)">
<rect width="395" height="200" rx="15" fill="#383838"/>
<circle cx="376.5" cy="183.5" r="40.5" fill="white" fill-opacity="0.2"/>
<circle cx="14.5" cy="22.5" r="40.5" fill="white" fill-opacity="0.2"/>
<mask id="mask0_110_22" style="mask-type:alpha" maskUnits="userSpaceOnUse" x="306" y="114" width="72" height="70">
<path d="M377.25 149C377.25 168.33 361.3 184 341.625 184C321.95 184 306 168.33 306 149C306 129.67 321.95 114 341.625 114C361.3 114 377.25 129.67 377.25 149Z" fill="#FFC533"/>
</mask>
<g mask="url(#mask0_110_22)">
<ellipse cx="341.625" cy="149" rx="35.625" ry="35" fill="#FFC533"/>
<path d="M354 170.25C354 186.404 340.904 199.5 324.75 199.5C308.596 199.5 295.5 186.404 295.5 170.25C295.5 154.096 308.596 141 324.75 141C340.904 141 354 154.096 354 170.25Z" fill="#08C8F6" stroke="#3E3E3E" stroke-width="4"/>
<path d="M386.5 167.125C386.5 181.596 375.041 193.25 361 193.25C346.959 193.25 335.5 181.596 335.5 167.125C335.5 152.654 346.959 141 361 141C375.041 141 386.5 152.654 386.5 167.125Z" fill="#08C8F6" stroke="#3E3E3E" stroke-width="4"/>
<path d="M396.5 179C396.5 192.393 385.643 203.25 372.25 203.25C358.857 203.25 348 192.393 348 179C348 165.607 358.857 154.75 372.25 154.75C385.643 154.75 396.5 165.607 396.5 179Z" fill="#08C8F6" stroke="#3D3D3D" stroke-width="4"/>
<path d="M365.25 184C365.25 197.393 354.393 208.25 341 208.25C327.607 208.25 316.75 197.393 316.75 184C316.75 170.607 327.607 159.75 341 159.75C354.393 159.75 365.25 170.607 365.25 184Z" fill="#08C8F6" stroke="#3E3E3E" stroke-width="4"/>
</g>
<path d="M60.906 41.602V62H56.734V50.268C56.734 49.9973 56.7387 49.7033 56.748 49.386C56.7667 49.0687 56.7947 48.7467 56.832 48.42L51.414 58.906C51.246 59.2327 51.0173 59.48 50.728 59.648C50.448 59.816 50.126 59.9 49.762 59.9H49.118C48.754 59.9 48.4273 59.816 48.138 59.648C47.858 59.48 47.634 59.2327 47.466 58.906L42.048 48.392C42.076 48.728 42.0993 49.0593 42.118 49.386C42.1367 49.7033 42.146 49.9973 42.146 50.268V62H37.974V41.602H41.586C41.7913 41.602 41.9687 41.6067 42.118 41.616C42.2767 41.6253 42.4167 41.6533 42.538 41.7C42.6593 41.7467 42.7667 41.8213 42.86 41.924C42.9627 42.0173 43.0607 42.1527 43.154 42.33L48.404 52.676C48.5907 53.0307 48.768 53.3993 48.936 53.782C49.1133 54.1647 49.2813 54.5567 49.44 54.958C49.5987 54.5473 49.762 54.146 49.93 53.754C50.1073 53.362 50.294 52.9887 50.49 52.634L55.726 42.33C55.8193 42.1527 55.9127 42.0173 56.006 41.924C56.1087 41.8213 56.2207 41.7467 56.342 41.7C56.4633 41.6533 56.5987 41.6253 56.748 41.616C56.9067 41.6067 57.0887 41.602 57.294 41.602H60.906ZM72.6614 52.998C72.6614 52.6527 72.6147 52.3167 72.5214 51.99C72.4374 51.6633 72.2927 51.374 72.0874 51.122C71.8914 50.8607 71.6301 50.6507 71.3034 50.492C70.9767 50.3333 70.5801 50.254 70.1134 50.254C69.2921 50.254 68.6481 50.492 68.1814 50.968C67.7147 51.4347 67.4067 52.1113 67.2574 52.998H72.6614ZM67.2014 55.518C67.3414 56.7313 67.7101 57.6133 68.3074 58.164C68.9047 58.7053 69.6747 58.976 70.6174 58.976C71.1214 58.976 71.5554 58.9153 71.9194 58.794C72.2834 58.6727 72.6054 58.5373 72.8854 58.388C73.1747 58.2387 73.4361 58.1033 73.6694 57.982C73.9121 57.8607 74.1641 57.8 74.4254 57.8C74.7707 57.8 75.0321 57.926 75.2094 58.178L76.4694 59.732C76.0214 60.2453 75.5361 60.6653 75.0134 60.992C74.5001 61.3093 73.9681 61.5613 73.4174 61.748C72.8761 61.9253 72.3301 62.0467 71.7794 62.112C71.2381 62.1867 70.7201 62.224 70.2254 62.224C69.2081 62.224 68.2514 62.0607 67.3554 61.734C66.4687 61.398 65.6894 60.9033 65.0174 60.25C64.3547 59.5967 63.8274 58.7847 63.4354 57.814C63.0527 56.8433 62.8614 55.714 62.8614 54.426C62.8614 53.4553 63.0247 52.536 63.3514 51.668C63.6874 50.8 64.1634 50.0393 64.7794 49.386C65.4047 48.7327 66.1561 48.2147 67.0334 47.832C67.9201 47.4493 68.9187 47.258 70.0294 47.258C70.9907 47.258 71.8681 47.4073 72.6614 47.706C73.4641 48.0047 74.1501 48.4387 74.7194 49.008C75.2981 49.5773 75.7461 50.2773 76.0634 51.108C76.3901 51.9293 76.5534 52.8627 76.5534 53.908C76.5534 54.2347 76.5394 54.5007 76.5114 54.706C76.4834 54.9113 76.4321 55.0747 76.3574 55.196C76.2827 55.3173 76.1801 55.4013 76.0494 55.448C75.9281 55.4947 75.7694 55.518 75.5734 55.518H67.2014ZM78.4452 62V47.482H81.1332C81.6745 47.482 82.0292 47.7247 82.1972 48.21L82.4352 48.994C82.6778 48.742 82.9298 48.5133 83.1912 48.308C83.4525 48.0933 83.7325 47.9113 84.0312 47.762C84.3392 47.6033 84.6658 47.482 85.0112 47.398C85.3658 47.3047 85.7532 47.258 86.1732 47.258C87.0505 47.258 87.7738 47.4867 88.3432 47.944C88.9218 48.392 89.3605 48.994 89.6592 49.75C89.9018 49.302 90.1958 48.9193 90.5412 48.602C90.8958 48.2847 91.2738 48.028 91.6752 47.832C92.0858 47.636 92.5152 47.4913 92.9632 47.398C93.4205 47.3047 93.8732 47.258 94.3212 47.258C95.1518 47.258 95.8892 47.384 96.5332 47.636C97.1772 47.8787 97.7138 48.238 98.1432 48.714C98.5818 49.1807 98.9132 49.7593 99.1372 50.45C99.3612 51.1313 99.4732 51.906 99.4732 52.774V62H95.1332V52.774C95.1332 51.2713 94.4892 50.52 93.2012 50.52C92.6132 50.52 92.1232 50.716 91.7312 51.108C91.3485 51.4907 91.1572 52.046 91.1572 52.774V62H86.8172V52.774C86.8172 51.9433 86.6538 51.36 86.3272 51.024C86.0005 50.688 85.5198 50.52 84.8852 50.52C84.4932 50.52 84.1198 50.6087 83.7652 50.786C83.4198 50.9633 83.0932 51.2013 82.7852 51.5V62H78.4452ZM115.002 47.482V62H112.314C111.772 62 111.418 61.7573 111.25 61.272L110.998 60.432C110.718 60.7027 110.428 60.95 110.13 61.174C109.831 61.3887 109.509 61.5753 109.164 61.734C108.828 61.8833 108.459 62 108.058 62.084C107.666 62.1773 107.236 62.224 106.77 62.224C105.976 62.224 105.272 62.0887 104.656 61.818C104.049 61.538 103.536 61.1507 103.116 60.656C102.696 60.1613 102.378 59.578 102.164 58.906C101.949 58.234 101.842 57.4967 101.842 56.694V47.482H106.182V56.694C106.182 57.4127 106.345 57.968 106.672 58.36C106.998 58.752 107.479 58.948 108.114 58.948C108.59 58.948 109.033 58.85 109.444 58.654C109.864 58.4487 110.27 58.1733 110.662 57.828V47.482H115.002ZM126.476 51.374C126.15 51.01 125.795 50.758 125.412 50.618C125.03 50.4687 124.628 50.394 124.208 50.394C123.807 50.394 123.438 50.4733 123.102 50.632C122.766 50.7907 122.472 51.0473 122.22 51.402C121.978 51.7473 121.786 52.2 121.646 52.76C121.506 53.32 121.436 53.9967 121.436 54.79C121.436 55.5553 121.492 56.1993 121.604 56.722C121.716 57.2447 121.87 57.6693 122.066 57.996C122.272 58.3133 122.514 58.542 122.794 58.682C123.074 58.822 123.387 58.892 123.732 58.892C124.05 58.892 124.334 58.864 124.586 58.808C124.848 58.7427 125.086 58.654 125.3 58.542C125.515 58.43 125.716 58.29 125.902 58.122C126.098 57.9447 126.29 57.744 126.476 57.52V51.374ZM130.816 41.042V62H128.128C127.587 62 127.232 61.7573 127.064 61.272L126.728 60.166C126.439 60.474 126.136 60.754 125.818 61.006C125.501 61.258 125.156 61.4773 124.782 61.664C124.418 61.8413 124.022 61.9767 123.592 62.07C123.172 62.1727 122.715 62.224 122.22 62.224C121.464 62.224 120.764 62.056 120.12 61.72C119.476 61.384 118.921 60.8987 118.454 60.264C117.988 59.6293 117.619 58.8547 117.348 57.94C117.087 57.016 116.956 55.966 116.956 54.79C116.956 53.7073 117.106 52.704 117.404 51.78C117.703 50.8467 118.123 50.044 118.664 49.372C119.215 48.6907 119.873 48.1587 120.638 47.776C121.404 47.3933 122.248 47.202 123.172 47.202C123.928 47.202 124.563 47.3093 125.076 47.524C125.59 47.7387 126.056 48.028 126.476 48.392V41.042H130.816ZM140.958 56.092C140.09 56.1293 139.376 56.204 138.816 56.316C138.256 56.428 137.813 56.568 137.486 56.736C137.16 56.904 136.931 57.0953 136.8 57.31C136.679 57.5247 136.618 57.758 136.618 58.01C136.618 58.5047 136.754 58.8547 137.024 59.06C137.295 59.256 137.692 59.354 138.214 59.354C138.774 59.354 139.264 59.256 139.684 59.06C140.104 58.864 140.529 58.5467 140.958 58.108V56.092ZM133.146 49.498C134.024 48.7233 134.994 48.1493 136.058 47.776C137.132 47.3933 138.28 47.202 139.502 47.202C140.38 47.202 141.168 47.3467 141.868 47.636C142.578 47.916 143.175 48.3127 143.66 48.826C144.155 49.33 144.533 49.932 144.794 50.632C145.056 51.332 145.186 52.0973 145.186 52.928V62H143.198C142.788 62 142.475 61.944 142.26 61.832C142.055 61.72 141.882 61.4867 141.742 61.132L141.434 60.334C141.07 60.642 140.72 60.9127 140.384 61.146C140.048 61.3793 139.698 61.58 139.334 61.748C138.98 61.9067 138.597 62.0233 138.186 62.098C137.785 62.182 137.337 62.224 136.842 62.224C136.18 62.224 135.578 62.14 135.036 61.972C134.495 61.7947 134.033 61.538 133.65 61.202C133.277 60.866 132.988 60.4507 132.782 59.956C132.577 59.452 132.474 58.8733 132.474 58.22C132.474 57.6973 132.605 57.17 132.866 56.638C133.128 56.0967 133.58 55.6067 134.224 55.168C134.868 54.72 135.736 54.3467 136.828 54.048C137.92 53.7493 139.297 53.5813 140.958 53.544V52.928C140.958 52.0787 140.781 51.4673 140.426 51.094C140.081 50.7113 139.586 50.52 138.942 50.52C138.429 50.52 138.009 50.576 137.682 50.688C137.356 50.8 137.062 50.926 136.8 51.066C136.548 51.206 136.301 51.332 136.058 51.444C135.816 51.556 135.526 51.612 135.19 51.612C134.892 51.612 134.64 51.5373 134.434 51.388C134.229 51.2387 134.061 51.0613 133.93 50.856L133.146 49.498ZM152.021 48.756C152.543 48.308 153.108 47.9487 153.715 47.678C154.331 47.398 155.063 47.258 155.913 47.258C156.706 47.258 157.406 47.398 158.013 47.678C158.629 47.9487 159.147 48.3313 159.567 48.826C159.987 49.3113 160.304 49.8947 160.519 50.576C160.733 51.248 160.841 51.9807 160.841 52.774V62H156.501V52.774C156.501 52.0647 156.337 51.514 156.011 51.122C155.684 50.7207 155.203 50.52 154.569 50.52C154.093 50.52 153.645 50.6227 153.225 50.828C152.814 51.024 152.413 51.2947 152.021 51.64V62H147.681V41.042H152.021V48.756ZM167.709 41.042V52.788H168.353C168.624 52.788 168.829 52.7507 168.969 52.676C169.109 52.592 169.249 52.4567 169.389 52.27L172.133 48.182C172.301 47.9487 172.493 47.776 172.707 47.664C172.922 47.5427 173.197 47.482 173.533 47.482H177.509L173.757 52.648C173.403 53.1147 172.983 53.4973 172.497 53.796C172.712 53.9547 172.908 54.1413 173.085 54.356C173.263 54.5613 173.431 54.7947 173.589 55.056L177.677 62H173.757C173.431 62 173.151 61.9487 172.917 61.846C172.684 61.734 172.488 61.5427 172.329 61.272L169.585 56.134C169.455 55.9007 169.319 55.7513 169.179 55.686C169.039 55.6113 168.829 55.574 168.549 55.574H167.709V62H163.369V41.042H167.709ZM186.22 56.092C185.352 56.1293 184.638 56.204 184.078 56.316C183.518 56.428 183.075 56.568 182.748 56.736C182.421 56.904 182.193 57.0953 182.062 57.31C181.941 57.5247 181.88 57.758 181.88 58.01C181.88 58.5047 182.015 58.8547 182.286 59.06C182.557 59.256 182.953 59.354 183.476 59.354C184.036 59.354 184.526 59.256 184.946 59.06C185.366 58.864 185.791 58.5467 186.22 58.108V56.092ZM178.408 49.498C179.285 48.7233 180.256 48.1493 181.32 47.776C182.393 47.3933 183.541 47.202 184.764 47.202C185.641 47.202 186.43 47.3467 187.13 47.636C187.839 47.916 188.437 48.3127 188.922 48.826C189.417 49.33 189.795 49.932 190.056 50.632C190.317 51.332 190.448 52.0973 190.448 52.928V62H188.46C188.049 62 187.737 61.944 187.522 61.832C187.317 61.72 187.144 61.4867 187.004 61.132L186.696 60.334C186.332 60.642 185.982 60.9127 185.646 61.146C185.31 61.3793 184.96 61.58 184.596 61.748C184.241 61.9067 183.859 62.0233 183.448 62.098C183.047 62.182 182.599 62.224 182.104 62.224C181.441 62.224 180.839 62.14 180.298 61.972C179.757 61.7947 179.295 61.538 178.912 61.202C178.539 60.866 178.249 60.4507 178.044 59.956C177.839 59.452 177.736 58.8733 177.736 58.22C177.736 57.6973 177.867 57.17 178.128 56.638C178.389 56.0967 178.842 55.6067 179.486 55.168C180.13 54.72 180.998 54.3467 182.09 54.048C183.182 53.7493 184.559 53.5813 186.22 53.544V52.928C186.22 52.0787 186.043 51.4673 185.688 51.094C185.343 50.7113 184.848 50.52 184.204 50.52C183.691 50.52 183.271 50.576 182.944 50.688C182.617 50.8 182.323 50.926 182.062 51.066C181.81 51.206 181.563 51.332 181.32 51.444C181.077 51.556 180.788 51.612 180.452 51.612C180.153 51.612 179.901 51.5373 179.696 51.388C179.491 51.2387 179.323 51.0613 179.192 50.856L178.408 49.498ZM196.946 49.05C197.226 48.7887 197.516 48.546 197.814 48.322C198.113 48.098 198.43 47.9113 198.766 47.762C199.112 47.6033 199.48 47.482 199.872 47.398C200.274 47.3047 200.708 47.258 201.174 47.258C201.968 47.258 202.668 47.398 203.274 47.678C203.89 47.9487 204.408 48.3313 204.828 48.826C205.248 49.3113 205.566 49.8947 205.78 50.576C205.995 51.248 206.102 51.9807 206.102 52.774V62H201.762V52.774C201.762 52.0647 201.599 51.514 201.272 51.122C200.946 50.7207 200.465 50.52 199.83 50.52C199.354 50.52 198.906 50.6227 198.486 50.828C198.076 51.024 197.674 51.2947 197.282 51.64V62H192.942V47.482H195.63C196.172 47.482 196.526 47.7247 196.694 48.21L196.946 49.05ZM238.267 41.602V62H234.095V50.268C234.095 49.9973 234.1 49.7033 234.109 49.386C234.128 49.0687 234.156 48.7467 234.193 48.42L228.775 58.906C228.607 59.2327 228.379 59.48 228.089 59.648C227.809 59.816 227.487 59.9 227.123 59.9H226.479C226.115 59.9 225.789 59.816 225.499 59.648C225.219 59.48 224.995 59.2327 224.827 58.906L219.409 48.392C219.437 48.728 219.461 49.0593 219.479 49.386C219.498 49.7033 219.507 49.9973 219.507 50.268V62H215.335V41.602H218.947C219.153 41.602 219.33 41.6067 219.479 41.616C219.638 41.6253 219.778 41.6533 219.899 41.7C220.021 41.7467 220.128 41.8213 220.221 41.924C220.324 42.0173 220.422 42.1527 220.515 42.33L225.765 52.676C225.952 53.0307 226.129 53.3993 226.297 53.782C226.475 54.1647 226.643 54.5567 226.801 54.958C226.96 54.5473 227.123 54.146 227.291 53.754C227.469 53.362 227.655 52.9887 227.851 52.634L233.087 42.33C233.181 42.1527 233.274 42.0173 233.367 41.924C233.47 41.8213 233.582 41.7467 233.703 41.7C233.825 41.6533 233.96 41.6253 234.109 41.616C234.268 41.6067 234.45 41.602 234.655 41.602H238.267ZM250.023 52.998C250.023 52.6527 249.976 52.3167 249.883 51.99C249.799 51.6633 249.654 51.374 249.449 51.122C249.253 50.8607 248.991 50.6507 248.665 50.492C248.338 50.3333 247.941 50.254 247.475 50.254C246.653 50.254 246.009 50.492 245.543 50.968C245.076 51.4347 244.768 52.1113 244.619 52.998H250.023ZM244.563 55.518C244.703 56.7313 245.071 57.6133 245.669 58.164C246.266 58.7053 247.036 58.976 247.979 58.976C248.483 58.976 248.917 58.9153 249.281 58.794C249.645 58.6727 249.967 58.5373 250.247 58.388C250.536 58.2387 250.797 58.1033 251.031 57.982C251.273 57.8607 251.525 57.8 251.787 57.8C252.132 57.8 252.393 57.926 252.571 58.178L253.831 59.732C253.383 60.2453 252.897 60.6653 252.375 60.992C251.861 61.3093 251.329 61.5613 250.779 61.748C250.237 61.9253 249.691 62.0467 249.141 62.112C248.599 62.1867 248.081 62.224 247.587 62.224C246.569 62.224 245.613 62.0607 244.717 61.734C243.83 61.398 243.051 60.9033 242.379 60.25C241.716 59.5967 241.189 58.7847 240.797 57.814C240.414 56.8433 240.223 55.714 240.223 54.426C240.223 53.4553 240.386 52.536 240.713 51.668C241.049 50.8 241.525 50.0393 242.141 49.386C242.766 48.7327 243.517 48.2147 244.395 47.832C245.281 47.4493 246.28 47.258 247.391 47.258C248.352 47.258 249.229 47.4073 250.023 47.706C250.825 48.0047 251.511 48.4387 252.081 49.008C252.659 49.5773 253.107 50.2773 253.425 51.108C253.751 51.9293 253.915 52.8627 253.915 53.908C253.915 54.2347 253.901 54.5007 253.873 54.706C253.845 54.9113 253.793 55.0747 253.719 55.196C253.644 55.3173 253.541 55.4013 253.411 55.448C253.289 55.4947 253.131 55.518 252.935 55.518H244.563ZM260.147 41.042V62H255.807V41.042H260.147ZM270.29 56.092C269.422 56.1293 268.708 56.204 268.148 56.316C267.588 56.428 267.145 56.568 266.818 56.736C266.491 56.904 266.263 57.0953 266.132 57.31C266.011 57.5247 265.95 57.758 265.95 58.01C265.95 58.5047 266.085 58.8547 266.356 59.06C266.627 59.256 267.023 59.354 267.546 59.354C268.106 59.354 268.596 59.256 269.016 59.06C269.436 58.864 269.861 58.5467 270.29 58.108V56.092ZM262.478 49.498C263.355 48.7233 264.326 48.1493 265.39 47.776C266.463 47.3933 267.611 47.202 268.834 47.202C269.711 47.202 270.5 47.3467 271.2 47.636C271.909 47.916 272.507 48.3127 272.992 48.826C273.487 49.33 273.865 49.932 274.126 50.632C274.387 51.332 274.518 52.0973 274.518 52.928V62H272.53C272.119 62 271.807 61.944 271.592 61.832C271.387 61.72 271.214 61.4867 271.074 61.132L270.766 60.334C270.402 60.642 270.052 60.9127 269.716 61.146C269.38 61.3793 269.03 61.58 268.666 61.748C268.311 61.9067 267.929 62.0233 267.518 62.098C267.117 62.182 266.669 62.224 266.174 62.224C265.511 62.224 264.909 62.14 264.368 61.972C263.827 61.7947 263.365 61.538 262.982 61.202C262.609 60.866 262.319 60.4507 262.114 59.956C261.909 59.452 261.806 58.8733 261.806 58.22C261.806 57.6973 261.937 57.17 262.198 56.638C262.459 56.0967 262.912 55.6067 263.556 55.168C264.2 54.72 265.068 54.3467 266.16 54.048C267.252 53.7493 268.629 53.5813 270.29 53.544V52.928C270.29 52.0787 270.113 51.4673 269.758 51.094C269.413 50.7113 268.918 50.52 268.274 50.52C267.761 50.52 267.341 50.576 267.014 50.688C266.687 50.8 266.393 50.926 266.132 51.066C265.88 51.206 265.633 51.332 265.39 51.444C265.147 51.556 264.858 51.612 264.522 51.612C264.223 51.612 263.971 51.5373 263.766 51.388C263.561 51.2387 263.393 51.0613 263.262 50.856L262.478 49.498ZM281.352 41.042V52.788H281.996C282.267 52.788 282.472 52.7507 282.612 52.676C282.752 52.592 282.892 52.4567 283.032 52.27L285.776 48.182C285.944 47.9487 286.136 47.776 286.35 47.664C286.565 47.5427 286.84 47.482 287.176 47.482H291.152L287.4 52.648C287.046 53.1147 286.626 53.4973 286.14 53.796C286.355 53.9547 286.551 54.1413 286.728 54.356C286.906 54.5613 287.074 54.7947 287.232 55.056L291.32 62H287.4C287.074 62 286.794 61.9487 286.56 61.846C286.327 61.734 286.131 61.5427 285.972 61.272L283.228 56.134C283.098 55.9007 282.962 55.7513 282.822 55.686C282.682 55.6113 282.472 55.574 282.192 55.574H281.352V62H277.012V41.042H281.352ZM305.393 47.482V62H302.705C302.163 62 301.809 61.7573 301.641 61.272L301.389 60.432C301.109 60.7027 300.819 60.95 300.521 61.174C300.222 61.3887 299.9 61.5753 299.555 61.734C299.219 61.8833 298.85 62 298.449 62.084C298.057 62.1773 297.627 62.224 297.161 62.224C296.367 62.224 295.663 62.0887 295.047 61.818C294.44 61.538 293.927 61.1507 293.507 60.656C293.087 60.1613 292.769 59.578 292.555 58.906C292.34 58.234 292.233 57.4967 292.233 56.694V47.482H296.573V56.694C296.573 57.4127 296.736 57.968 297.063 58.36C297.389 58.752 297.87 58.948 298.505 58.948C298.981 58.948 299.424 58.85 299.835 58.654C300.255 58.4487 300.661 58.1733 301.053 57.828V47.482H305.393ZM312.402 41.042V52.788H313.046C313.316 52.788 313.522 52.7507 313.662 52.676C313.802 52.592 313.942 52.4567 314.082 52.27L316.826 48.182C316.994 47.9487 317.185 47.776 317.4 47.664C317.614 47.5427 317.89 47.482 318.226 47.482H322.202L318.45 52.648C318.095 53.1147 317.675 53.4973 317.19 53.796C317.404 53.9547 317.6 54.1413 317.778 54.356C317.955 54.5613 318.123 54.7947 318.282 55.056L322.37 62H318.45C318.123 62 317.843 61.9487 317.61 61.846C317.376 61.734 317.18 61.5427 317.022 61.272L314.278 56.134C314.147 55.9007 314.012 55.7513 313.872 55.686C313.732 55.6113 313.522 55.574 313.242 55.574H312.402V62H308.062V41.042H312.402ZM330.912 56.092C330.044 56.1293 329.33 56.204 328.77 56.316C328.21 56.428 327.767 56.568 327.44 56.736C327.114 56.904 326.885 57.0953 326.754 57.31C326.633 57.5247 326.572 57.758 326.572 58.01C326.572 58.5047 326.708 58.8547 326.978 59.06C327.249 59.256 327.646 59.354 328.168 59.354C328.728 59.354 329.218 59.256 329.638 59.06C330.058 58.864 330.483 58.5467 330.912 58.108V56.092ZM323.1 49.498C323.978 48.7233 324.948 48.1493 326.012 47.776C327.086 47.3933 328.234 47.202 329.456 47.202C330.334 47.202 331.122 47.3467 331.822 47.636C332.532 47.916 333.129 48.3127 333.614 48.826C334.109 49.33 334.487 49.932 334.748 50.632C335.01 51.332 335.14 52.0973 335.14 52.928V62H333.152C332.742 62 332.429 61.944 332.214 61.832C332.009 61.72 331.836 61.4867 331.696 61.132L331.388 60.334C331.024 60.642 330.674 60.9127 330.338 61.146C330.002 61.3793 329.652 61.58 329.288 61.748C328.934 61.9067 328.551 62.0233 328.14 62.098C327.739 62.182 327.291 62.224 326.796 62.224C326.134 62.224 325.532 62.14 324.99 61.972C324.449 61.7947 323.987 61.538 323.604 61.202C323.231 60.866 322.942 60.4507 322.736 59.956C322.531 59.452 322.428 58.8733 322.428 58.22C322.428 57.6973 322.559 57.17 322.82 56.638C323.082 56.0967 323.534 55.6067 324.178 55.168C324.822 54.72 325.69 54.3467 326.782 54.048C327.874 53.7493 329.251 53.5813 330.912 53.544V52.928C330.912 52.0787 330.735 51.4673 330.38 51.094C330.035 50.7113 329.54 50.52 328.896 50.52C328.383 50.52 327.963 50.576 327.636 50.688C327.31 50.8 327.016 50.926 326.754 51.066C326.502 51.206 326.255 51.332 326.012 51.444C325.77 51.556 325.48 51.612 325.144 51.612C324.846 51.612 324.594 51.5373 324.388 51.388C324.183 51.2387 324.015 51.0613 323.884 50.856L323.1 49.498ZM341.638 49.05C341.918 48.7887 342.208 48.546 342.506 48.322C342.805 48.098 343.122 47.9113 343.458 47.762C343.804 47.6033 344.172 47.482 344.564 47.398C344.966 47.3047 345.4 47.258 345.866 47.258C346.66 47.258 347.36 47.398 347.966 47.678C348.582 47.9487 349.1 48.3313 349.52 48.826C349.94 49.3113 350.258 49.8947 350.472 50.576C350.687 51.248 350.794 51.9807 350.794 52.774V62H346.454V52.774C346.454 52.0647 346.291 51.514 345.964 51.122C345.638 50.7207 345.157 50.52 344.522 50.52C344.046 50.52 343.598 50.6227 343.178 50.828C342.768 51.024 342.366 51.2947 341.974 51.64V62H337.634V47.482H340.322C340.864 47.482 341.218 47.7247 341.386 48.21L341.638 49.05ZM45.17 93.612C46.402 93.612 47.2887 93.318 47.83 92.73C48.3713 92.142 48.642 91.3207 48.642 90.266C48.642 89.7993 48.572 89.3747 48.432 88.992C48.292 88.6093 48.0773 88.2827 47.788 88.012C47.508 87.732 47.1487 87.5173 46.71 87.368C46.2807 87.2187 45.7673 87.144 45.17 87.144H42.706V93.612H45.17ZM45.17 83.602C46.6073 83.602 47.8393 83.7747 48.866 84.12C49.902 84.456 50.7513 84.9227 51.414 85.52C52.086 86.1173 52.5807 86.822 52.898 87.634C53.2153 88.446 53.374 89.3233 53.374 90.266C53.374 91.2833 53.2107 92.2167 52.884 93.066C52.5573 93.9153 52.058 94.6433 51.386 95.25C50.714 95.8567 49.86 96.3327 48.824 96.678C47.7973 97.014 46.5793 97.182 45.17 97.182H42.706V104H37.974V83.602H45.17ZM63.4466 94.998C63.4466 94.6527 63.3999 94.3167 63.3066 93.99C63.2226 93.6633 63.0779 93.374 62.8726 93.122C62.6766 92.8607 62.4152 92.6507 62.0886 92.492C61.7619 92.3333 61.3652 92.254 60.8986 92.254C60.0772 92.254 59.4332 92.492 58.9666 92.968C58.4999 93.4347 58.1919 94.1113 58.0426 94.998H63.4466ZM57.9866 97.518C58.1266 98.7313 58.4952 99.6133 59.0926 100.164C59.6899 100.705 60.4599 100.976 61.4026 100.976C61.9066 100.976 62.3406 100.915 62.7046 100.794C63.0686 100.673 63.3906 100.537 63.6706 100.388C63.9599 100.239 64.2212 100.103 64.4546 99.982C64.6972 99.8607 64.9492 99.8 65.2106 99.8C65.5559 99.8 65.8172 99.926 65.9946 100.178L67.2546 101.732C66.8066 102.245 66.3212 102.665 65.7986 102.992C65.2852 103.309 64.7532 103.561 64.2026 103.748C63.6612 103.925 63.1152 104.047 62.5646 104.112C62.0232 104.187 61.5052 104.224 61.0106 104.224C59.9932 104.224 59.0366 104.061 58.1406 103.734C57.2539 103.398 56.4746 102.903 55.8026 102.25C55.1399 101.597 54.6126 100.785 54.2206 99.814C53.8379 98.8433 53.6466 97.714 53.6466 96.426C53.6466 95.4553 53.8099 94.536 54.1366 93.668C54.4726 92.8 54.9486 92.0393 55.5646 91.386C56.1899 90.7327 56.9412 90.2147 57.8186 89.832C58.7052 89.4493 59.7039 89.258 60.8146 89.258C61.7759 89.258 62.6532 89.4073 63.4466 89.706C64.2492 90.0047 64.9352 90.4387 65.5046 91.008C66.0832 91.5773 66.5312 92.2773 66.8486 93.108C67.1752 93.9293 67.3386 94.8627 67.3386 95.908C67.3386 96.2347 67.3246 96.5007 67.2966 96.706C67.2686 96.9113 67.2172 97.0747 67.1426 97.196C67.0679 97.3173 66.9652 97.4013 66.8346 97.448C66.7132 97.4947 66.5546 97.518 66.3586 97.518H57.9866ZM69.2303 104V89.482H71.9183C72.4596 89.482 72.8143 89.7247 72.9823 90.21L73.2203 90.994C73.463 90.742 73.715 90.5133 73.9763 90.308C74.2376 90.0933 74.5176 89.9113 74.8163 89.762C75.1243 89.6033 75.451 89.482 75.7963 89.398C76.151 89.3047 76.5383 89.258 76.9583 89.258C77.8356 89.258 78.559 89.4867 79.1283 89.944C79.707 90.392 80.1456 90.994 80.4443 91.75C80.687 91.302 80.981 90.9193 81.3263 90.602C81.681 90.2847 82.059 90.028 82.4603 89.832C82.871 89.636 83.3003 89.4913 83.7483 89.398C84.2056 89.3047 84.6583 89.258 85.1063 89.258C85.937 89.258 86.6743 89.384 87.3183 89.636C87.9623 89.8787 88.499 90.238 88.9283 90.714C89.367 91.1807 89.6983 91.7593 89.9223 92.45C90.1463 93.1313 90.2583 93.906 90.2583 94.774V104H85.9183V94.774C85.9183 93.2713 85.2743 92.52 83.9863 92.52C83.3983 92.52 82.9083 92.716 82.5163 93.108C82.1336 93.4907 81.9423 94.046 81.9423 94.774V104H77.6023V94.774C77.6023 93.9433 77.439 93.36 77.1123 93.024C76.7856 92.688 76.305 92.52 75.6703 92.52C75.2783 92.52 74.905 92.6087 74.5503 92.786C74.205 92.9633 73.8783 93.2013 73.5703 93.5V104H69.2303ZM97.2047 89.482V104H92.8647V89.482H97.2047ZM97.6527 85.506C97.6527 85.8513 97.5827 86.178 97.4427 86.486C97.3027 86.7847 97.1114 87.0507 96.8687 87.284C96.6261 87.508 96.3414 87.69 96.0147 87.83C95.6974 87.9607 95.3567 88.026 94.9927 88.026C94.6381 88.026 94.3067 87.9607 93.9987 87.83C93.6907 87.69 93.4154 87.508 93.1727 87.284C92.9394 87.0507 92.7527 86.7847 92.6127 86.486C92.4821 86.178 92.4167 85.8513 92.4167 85.506C92.4167 85.1513 92.4821 84.82 92.6127 84.512C92.7527 84.204 92.9394 83.9333 93.1727 83.7C93.4154 83.4667 93.6907 83.2847 93.9987 83.154C94.3067 83.0233 94.6381 82.958 94.9927 82.958C95.3567 82.958 95.6974 83.0233 96.0147 83.154C96.3414 83.2847 96.6261 83.4667 96.8687 83.7C97.1114 83.9333 97.3027 84.204 97.4427 84.512C97.5827 84.82 97.6527 85.1513 97.6527 85.506ZM103.956 91.05C104.236 90.7887 104.525 90.546 104.824 90.322C105.122 90.098 105.44 89.9113 105.776 89.762C106.121 89.6033 106.49 89.482 106.882 89.398C107.283 89.3047 107.717 89.258 108.184 89.258C108.977 89.258 109.677 89.398 110.284 89.678C110.9 89.9487 111.418 90.3313 111.838 90.826C112.258 91.3113 112.575 91.8947 112.79 92.576C113.004 93.248 113.112 93.9807 113.112 94.774V104H108.772V94.774C108.772 94.0647 108.608 93.514 108.282 93.122C107.955 92.7207 107.474 92.52 106.84 92.52C106.364 92.52 105.916 92.6227 105.496 92.828C105.085 93.024 104.684 93.2947 104.292 93.64V104H99.9516V89.482H102.64C103.181 89.482 103.536 89.7247 103.704 90.21L103.956 91.05ZM120.078 89.482V104.028C120.078 104.709 119.99 105.349 119.812 105.946C119.644 106.553 119.36 107.08 118.958 107.528C118.566 107.985 118.044 108.345 117.39 108.606C116.746 108.867 115.944 108.998 114.982 108.998C114.628 108.998 114.301 108.975 114.002 108.928C113.694 108.891 113.377 108.83 113.05 108.746L113.19 106.464C113.209 106.268 113.274 106.123 113.386 106.03C113.498 105.937 113.722 105.89 114.058 105.89C114.394 105.89 114.67 105.862 114.884 105.806C115.099 105.75 115.267 105.652 115.388 105.512C115.519 105.372 115.608 105.181 115.654 104.938C115.71 104.705 115.738 104.401 115.738 104.028V89.482H120.078ZM120.526 85.506C120.526 85.8513 120.456 86.178 120.316 86.486C120.176 86.7847 119.985 87.0507 119.742 87.284C119.5 87.508 119.215 87.69 118.888 87.83C118.571 87.9607 118.23 88.026 117.866 88.026C117.512 88.026 117.18 87.9607 116.872 87.83C116.564 87.69 116.289 87.508 116.046 87.284C115.813 87.0507 115.626 86.7847 115.486 86.486C115.356 86.178 115.29 85.8513 115.29 85.506C115.29 85.1513 115.356 84.82 115.486 84.512C115.626 84.204 115.813 83.9333 116.046 83.7C116.289 83.4667 116.564 83.2847 116.872 83.154C117.18 83.0233 117.512 82.958 117.866 82.958C118.23 82.958 118.571 83.0233 118.888 83.154C119.215 83.2847 119.5 83.4667 119.742 83.7C119.985 83.9333 120.176 84.204 120.316 84.512C120.456 84.82 120.526 85.1513 120.526 85.506ZM130.315 98.092C129.447 98.1293 128.733 98.204 128.173 98.316C127.613 98.428 127.17 98.568 126.843 98.736C126.516 98.904 126.288 99.0953 126.157 99.31C126.036 99.5247 125.975 99.758 125.975 100.01C125.975 100.505 126.11 100.855 126.381 101.06C126.652 101.256 127.048 101.354 127.571 101.354C128.131 101.354 128.621 101.256 129.041 101.06C129.461 100.864 129.886 100.547 130.315 100.108V98.092ZM122.503 91.498C123.38 90.7233 124.351 90.1493 125.415 89.776C126.488 89.3933 127.636 89.202 128.859 89.202C129.736 89.202 130.525 89.3467 131.225 89.636C131.934 89.916 132.532 90.3127 133.017 90.826C133.512 91.33 133.89 91.932 134.151 92.632C134.412 93.332 134.543 94.0973 134.543 94.928V104H132.555C132.144 104 131.832 103.944 131.617 103.832C131.412 103.72 131.239 103.487 131.099 103.132L130.791 102.334C130.427 102.642 130.077 102.913 129.741 103.146C129.405 103.379 129.055 103.58 128.691 103.748C128.336 103.907 127.954 104.023 127.543 104.098C127.142 104.182 126.694 104.224 126.199 104.224C125.536 104.224 124.934 104.14 124.393 103.972C123.852 103.795 123.39 103.538 123.007 103.202C122.634 102.866 122.344 102.451 122.139 101.956C121.934 101.452 121.831 100.873 121.831 100.22C121.831 99.6973 121.962 99.17 122.223 98.638C122.484 98.0967 122.937 97.6067 123.581 97.168C124.225 96.72 125.093 96.3467 126.185 96.048C127.277 95.7493 128.654 95.5813 130.315 95.544V94.928C130.315 94.0787 130.138 93.4673 129.783 93.094C129.438 92.7113 128.943 92.52 128.299 92.52C127.786 92.52 127.366 92.576 127.039 92.688C126.712 92.8 126.418 92.926 126.157 93.066C125.905 93.206 125.658 93.332 125.415 93.444C125.172 93.556 124.883 93.612 124.547 93.612C124.248 93.612 123.996 93.5373 123.791 93.388C123.586 93.2387 123.418 93.0613 123.287 92.856L122.503 91.498ZM137.037 104V89.482H139.725C140.267 89.482 140.621 89.7247 140.789 90.21L141.027 90.994C141.27 90.742 141.522 90.5133 141.783 90.308C142.045 90.0933 142.325 89.9113 142.623 89.762C142.931 89.6033 143.258 89.482 143.603 89.398C143.958 89.3047 144.345 89.258 144.765 89.258C145.643 89.258 146.366 89.4867 146.935 89.944C147.514 90.392 147.953 90.994 148.251 91.75C148.494 91.302 148.788 90.9193 149.133 90.602C149.488 90.2847 149.866 90.028 150.267 89.832C150.678 89.636 151.107 89.4913 151.555 89.398C152.013 89.3047 152.465 89.258 152.913 89.258C153.744 89.258 154.481 89.384 155.125 89.636C155.769 89.8787 156.306 90.238 156.735 90.714C157.174 91.1807 157.505 91.7593 157.729 92.45C157.953 93.1313 158.065 93.906 158.065 94.774V104H153.725V94.774C153.725 93.2713 153.081 92.52 151.793 92.52C151.205 92.52 150.715 92.716 150.323 93.108C149.941 93.4907 149.749 94.046 149.749 94.774V104H145.409V94.774C145.409 93.9433 145.246 93.36 144.919 93.024C144.593 92.688 144.112 92.52 143.477 92.52C143.085 92.52 142.712 92.6087 142.357 92.786C142.012 92.9633 141.685 93.2013 141.377 93.5V104H137.037ZM168.064 98.092C167.196 98.1293 166.482 98.204 165.922 98.316C165.362 98.428 164.918 98.568 164.592 98.736C164.265 98.904 164.036 99.0953 163.906 99.31C163.784 99.5247 163.724 99.758 163.724 100.01C163.724 100.505 163.859 100.855 164.13 101.06C164.4 101.256 164.797 101.354 165.32 101.354C165.88 101.354 166.37 101.256 166.79 101.06C167.21 100.864 167.634 100.547 168.064 100.108V98.092ZM160.252 91.498C161.129 90.7233 162.1 90.1493 163.164 89.776C164.237 89.3933 165.385 89.202 166.608 89.202C167.485 89.202 168.274 89.3467 168.974 89.636C169.683 89.916 170.28 90.3127 170.766 90.826C171.26 91.33 171.638 91.932 171.9 92.632C172.161 93.332 172.292 94.0973 172.292 94.928V104H170.304C169.893 104 169.58 103.944 169.366 103.832C169.16 103.72 168.988 103.487 168.848 103.132L168.54 102.334C168.176 102.642 167.826 102.913 167.49 103.146C167.154 103.379 166.804 103.58 166.44 103.748C166.085 103.907 165.702 104.023 165.292 104.098C164.89 104.182 164.442 104.224 163.948 104.224C163.285 104.224 162.683 104.14 162.142 103.972C161.6 103.795 161.138 103.538 160.756 103.202C160.382 102.866 160.093 102.451 159.888 101.956C159.682 101.452 159.58 100.873 159.58 100.22C159.58 99.6973 159.71 99.17 159.972 98.638C160.233 98.0967 160.686 97.6067 161.33 97.168C161.974 96.72 162.842 96.3467 163.934 96.048C165.026 95.7493 166.402 95.5813 168.064 95.544V94.928C168.064 94.0787 167.886 93.4673 167.532 93.094C167.186 92.7113 166.692 92.52 166.048 92.52C165.534 92.52 165.114 92.576 164.788 92.688C164.461 92.8 164.167 92.926 163.906 93.066C163.654 93.206 163.406 93.332 163.164 93.444C162.921 93.556 162.632 93.612 162.296 93.612C161.997 93.612 161.745 93.5373 161.54 93.388C161.334 93.2387 161.166 93.0613 161.036 92.856L160.252 91.498ZM178.79 91.05C179.07 90.7887 179.359 90.546 179.658 90.322C179.957 90.098 180.274 89.9113 180.61 89.762C180.955 89.6033 181.324 89.482 181.716 89.398C182.117 89.3047 182.551 89.258 183.018 89.258C183.811 89.258 184.511 89.398 185.118 89.678C185.734 89.9487 186.252 90.3313 186.672 90.826C187.092 91.3113 187.409 91.8947 187.624 92.576C187.839 93.248 187.946 93.9807 187.946 94.774V104H183.606V94.774C183.606 94.0647 183.443 93.514 183.116 93.122C182.789 92.7207 182.309 92.52 181.674 92.52C181.198 92.52 180.75 92.6227 180.33 92.828C179.919 93.024 179.518 93.2947 179.126 93.64V104H174.786V89.482H177.474C178.015 89.482 178.37 89.7247 178.538 90.21L178.79 91.05ZM205.243 100.43C205.868 100.43 206.377 100.351 206.769 100.192C207.17 100.033 207.483 99.828 207.707 99.576C207.931 99.324 208.085 99.0393 208.169 98.722C208.253 98.4047 208.295 98.0827 208.295 97.756C208.295 97.3827 208.244 97.0467 208.141 96.748C208.048 96.4493 207.88 96.1973 207.637 95.992C207.404 95.7867 207.091 95.628 206.699 95.516C206.307 95.404 205.812 95.348 205.215 95.348H201.911V100.43H205.243ZM201.911 87.144V92.184H204.375C204.898 92.184 205.369 92.1467 205.789 92.072C206.209 91.9973 206.564 91.8667 206.853 91.68C207.152 91.4933 207.376 91.2367 207.525 90.91C207.684 90.5833 207.763 90.1727 207.763 89.678C207.763 89.1927 207.702 88.7913 207.581 88.474C207.46 88.1473 207.273 87.886 207.021 87.69C206.769 87.494 206.447 87.354 206.055 87.27C205.672 87.186 205.215 87.144 204.683 87.144H201.911ZM204.683 83.602C206.092 83.602 207.292 83.7327 208.281 83.994C209.27 84.2553 210.078 84.624 210.703 85.1C211.328 85.576 211.781 86.1547 212.061 86.836C212.35 87.5173 212.495 88.278 212.495 89.118C212.495 89.5753 212.43 90.0187 212.299 90.448C212.168 90.868 211.963 91.2647 211.683 91.638C211.403 92.002 211.044 92.338 210.605 92.646C210.166 92.954 209.639 93.22 209.023 93.444C210.367 93.7707 211.361 94.298 212.005 95.026C212.649 95.754 212.971 96.6967 212.971 97.854C212.971 98.722 212.803 99.5293 212.467 100.276C212.131 101.023 211.636 101.676 210.983 102.236C210.339 102.787 209.541 103.221 208.589 103.538C207.637 103.846 206.55 104 205.327 104H197.179V83.602H204.683ZM227.954 89.482V104H225.266C224.725 104 224.37 103.757 224.202 103.272L223.95 102.432C223.67 102.703 223.381 102.95 223.082 103.174C222.784 103.389 222.462 103.575 222.116 103.734C221.78 103.883 221.412 104 221.01 104.084C220.618 104.177 220.189 104.224 219.722 104.224C218.929 104.224 218.224 104.089 217.608 103.818C217.002 103.538 216.488 103.151 216.068 102.656C215.648 102.161 215.331 101.578 215.116 100.906C214.902 100.234 214.794 99.4967 214.794 98.694V89.482H219.134V98.694C219.134 99.4127 219.298 99.968 219.624 100.36C219.951 100.752 220.432 100.948 221.066 100.948C221.542 100.948 221.986 100.85 222.396 100.654C222.816 100.449 223.222 100.173 223.614 99.828V89.482H227.954ZM234.963 83.042V94.788H235.607C235.878 94.788 236.083 94.7507 236.223 94.676C236.363 94.592 236.503 94.4567 236.643 94.27L239.387 90.182C239.555 89.9487 239.746 89.776 239.961 89.664C240.176 89.5427 240.451 89.482 240.787 89.482H244.763L241.011 94.648C240.656 95.1147 240.236 95.4973 239.751 95.796C239.966 95.9547 240.162 96.1413 240.339 96.356C240.516 96.5613 240.684 96.7947 240.843 97.056L244.931 104H241.011C240.684 104 240.404 103.949 240.171 103.846C239.938 103.734 239.742 103.543 239.583 103.272L236.839 98.134C236.708 97.9007 236.573 97.7513 236.433 97.686C236.293 97.6113 236.083 97.574 235.803 97.574H234.963V104H230.623V83.042H234.963ZM259.004 89.482V104H256.316C255.774 104 255.42 103.757 255.252 103.272L255 102.432C254.72 102.703 254.43 102.95 254.132 103.174C253.833 103.389 253.511 103.575 253.166 103.734C252.83 103.883 252.461 104 252.06 104.084C251.668 104.177 251.238 104.224 250.772 104.224C249.978 104.224 249.274 104.089 248.658 103.818C248.051 103.538 247.538 103.151 247.118 102.656C246.698 102.161 246.38 101.578 246.166 100.906C245.951 100.234 245.844 99.4967 245.844 98.694V89.482H250.184V98.694C250.184 99.4127 250.347 99.968 250.674 100.36C251 100.752 251.481 100.948 252.116 100.948C252.592 100.948 253.035 100.85 253.446 100.654C253.866 100.449 254.272 100.173 254.664 99.828V89.482H259.004ZM46.276 135.374C45.9493 135.01 45.5947 134.758 45.212 134.618C44.8293 134.469 44.428 134.394 44.008 134.394C43.6067 134.394 43.238 134.473 42.902 134.632C42.566 134.791 42.272 135.047 42.02 135.402C41.7773 135.747 41.586 136.2 41.446 136.76C41.306 137.32 41.236 137.997 41.236 138.79C41.236 139.555 41.292 140.199 41.404 140.722C41.516 141.245 41.67 141.669 41.866 141.996C42.0713 142.313 42.314 142.542 42.594 142.682C42.874 142.822 43.1867 142.892 43.532 142.892C43.8493 142.892 44.134 142.864 44.386 142.808C44.6473 142.743 44.8853 142.654 45.1 142.542C45.3147 142.43 45.5153 142.29 45.702 142.122C45.898 141.945 46.0893 141.744 46.276 141.52V135.374ZM50.616 125.042V146H47.928C47.3867 146 47.032 145.757 46.864 145.272L46.528 144.166C46.2387 144.474 45.9353 144.754 45.618 145.006C45.3007 145.258 44.9553 145.477 44.582 145.664C44.218 145.841 43.8213 145.977 43.392 146.07C42.972 146.173 42.5147 146.224 42.02 146.224C41.264 146.224 40.564 146.056 39.92 145.72C39.276 145.384 38.7207 144.899 38.254 144.264C37.7873 143.629 37.4187 142.855 37.148 141.94C36.8867 141.016 36.756 139.966 36.756 138.79C36.756 137.707 36.9053 136.704 37.204 135.78C37.5027 134.847 37.9227 134.044 38.464 133.372C39.0147 132.691 39.6727 132.159 40.438 131.776C41.2033 131.393 42.048 131.202 42.972 131.202C43.728 131.202 44.3627 131.309 44.876 131.524C45.3893 131.739 45.856 132.028 46.276 132.392V125.042H50.616ZM57.7061 131.482V146H53.3661V131.482H57.7061ZM58.1541 127.506C58.1541 127.851 58.0841 128.178 57.9441 128.486C57.8041 128.785 57.6128 129.051 57.3701 129.284C57.1275 129.508 56.8428 129.69 56.5161 129.83C56.1988 129.961 55.8581 130.026 55.4941 130.026C55.1395 130.026 54.8081 129.961 54.5001 129.83C54.1921 129.69 53.9168 129.508 53.6741 129.284C53.4408 129.051 53.2541 128.785 53.1141 128.486C52.9835 128.178 52.9181 127.851 52.9181 127.506C52.9181 127.151 52.9835 126.82 53.1141 126.512C53.2541 126.204 53.4408 125.933 53.6741 125.7C53.9168 125.467 54.1921 125.285 54.5001 125.154C54.8081 125.023 55.1395 124.958 55.4941 124.958C55.8581 124.958 56.1988 125.023 56.5161 125.154C56.8428 125.285 57.1275 125.467 57.3701 125.7C57.6128 125.933 57.8041 126.204 57.9441 126.512C58.0841 126.82 58.1541 127.151 58.1541 127.506ZM74.3534 135.612C75.5854 135.612 76.4721 135.318 77.0134 134.73C77.5548 134.142 77.8254 133.321 77.8254 132.266C77.8254 131.799 77.7554 131.375 77.6154 130.992C77.4754 130.609 77.2608 130.283 76.9714 130.012C76.6914 129.732 76.3321 129.517 75.8934 129.368C75.4641 129.219 74.9508 129.144 74.3534 129.144H71.8894V135.612H74.3534ZM74.3534 125.602C75.7908 125.602 77.0228 125.775 78.0494 126.12C79.0854 126.456 79.9348 126.923 80.5974 127.52C81.2694 128.117 81.7641 128.822 82.0814 129.634C82.3988 130.446 82.5574 131.323 82.5574 132.266C82.5574 133.283 82.3941 134.217 82.0674 135.066C81.7408 135.915 81.2414 136.643 80.5694 137.25C79.8974 137.857 79.0434 138.333 78.0074 138.678C76.9808 139.014 75.7628 139.182 74.3534 139.182H71.8894V146H67.1574V125.602H74.3534ZM92.63 136.998C92.63 136.653 92.5833 136.317 92.49 135.99C92.406 135.663 92.2613 135.374 92.056 135.122C91.86 134.861 91.5987 134.651 91.272 134.492C90.9453 134.333 90.5487 134.254 90.082 134.254C89.2607 134.254 88.6167 134.492 88.15 134.968C87.6833 135.435 87.3753 136.111 87.226 136.998H92.63ZM87.17 139.518C87.31 140.731 87.6787 141.613 88.276 142.164C88.8733 142.705 89.6433 142.976 90.586 142.976C91.09 142.976 91.524 142.915 91.888 142.794C92.252 142.673 92.574 142.537 92.854 142.388C93.1433 142.239 93.4047 142.103 93.638 141.982C93.8807 141.861 94.1327 141.8 94.394 141.8C94.7393 141.8 95.0007 141.926 95.178 142.178L96.438 143.732C95.99 144.245 95.5047 144.665 94.982 144.992C94.4687 145.309 93.9367 145.561 93.386 145.748C92.8447 145.925 92.2987 146.047 91.748 146.112C91.2067 146.187 90.6887 146.224 90.194 146.224C89.1767 146.224 88.22 146.061 87.324 145.734C86.4373 145.398 85.658 144.903 84.986 144.25C84.3233 143.597 83.796 142.785 83.404 141.814C83.0213 140.843 82.83 139.714 82.83 138.426C82.83 137.455 82.9933 136.536 83.32 135.668C83.656 134.8 84.132 134.039 84.748 133.386C85.3733 132.733 86.1247 132.215 87.002 131.832C87.8887 131.449 88.8873 131.258 89.998 131.258C90.9593 131.258 91.8367 131.407 92.63 131.706C93.4327 132.005 94.1187 132.439 94.688 133.008C95.2667 133.577 95.7147 134.277 96.032 135.108C96.3587 135.929 96.522 136.863 96.522 137.908C96.522 138.235 96.508 138.501 96.48 138.706C96.452 138.911 96.4007 139.075 96.326 139.196C96.2513 139.317 96.1487 139.401 96.018 139.448C95.8967 139.495 95.738 139.518 95.542 139.518H87.17ZM102.474 133.722C102.922 132.938 103.435 132.322 104.014 131.874C104.602 131.426 105.274 131.202 106.03 131.202C106.683 131.202 107.215 131.356 107.626 131.664L107.346 134.856C107.299 135.061 107.22 135.201 107.108 135.276C107.005 135.351 106.86 135.388 106.674 135.388C106.599 135.388 106.501 135.383 106.38 135.374C106.258 135.365 106.132 135.355 106.002 135.346C105.871 135.327 105.736 135.313 105.596 135.304C105.465 135.285 105.344 135.276 105.232 135.276C104.597 135.276 104.088 135.444 103.706 135.78C103.332 136.116 103.015 136.583 102.754 137.18V146H98.4137V131.482H100.99C101.204 131.482 101.382 131.501 101.522 131.538C101.671 131.575 101.792 131.636 101.886 131.72C101.988 131.795 102.063 131.897 102.11 132.028C102.166 132.159 102.212 132.317 102.25 132.504L102.474 133.722ZM113.165 142.052C113.492 142.407 113.846 142.659 114.229 142.808C114.612 142.957 115.013 143.032 115.433 143.032C115.834 143.032 116.203 142.953 116.539 142.794C116.875 142.635 117.164 142.383 117.407 142.038C117.659 141.683 117.855 141.226 117.995 140.666C118.135 140.106 118.205 139.425 118.205 138.622C118.205 137.857 118.149 137.213 118.037 136.69C117.925 136.167 117.766 135.747 117.561 135.43C117.365 135.103 117.127 134.87 116.847 134.73C116.567 134.59 116.254 134.52 115.909 134.52C115.274 134.52 114.752 134.637 114.341 134.87C113.93 135.103 113.538 135.444 113.165 135.892V142.052ZM112.899 133.274C113.468 132.667 114.112 132.173 114.831 131.79C115.559 131.398 116.422 131.202 117.421 131.202C118.177 131.202 118.877 131.37 119.521 131.706C120.165 132.042 120.72 132.527 121.187 133.162C121.654 133.797 122.018 134.576 122.279 135.5C122.55 136.415 122.685 137.455 122.685 138.622C122.685 139.714 122.531 140.722 122.223 141.646C121.924 142.57 121.5 143.373 120.949 144.054C120.408 144.735 119.754 145.267 118.989 145.65C118.233 146.033 117.393 146.224 116.469 146.224C115.713 146.224 115.078 146.117 114.565 145.902C114.052 145.687 113.585 145.398 113.165 145.034V150.606H108.825V131.482H111.513C112.054 131.482 112.409 131.725 112.577 132.21L112.899 133.274ZM137.671 131.482V146H134.983C134.441 146 134.087 145.757 133.919 145.272L133.667 144.432C133.387 144.703 133.097 144.95 132.799 145.174C132.5 145.389 132.178 145.575 131.833 145.734C131.497 145.883 131.128 146 130.727 146.084C130.335 146.177 129.905 146.224 129.439 146.224C128.645 146.224 127.941 146.089 127.325 145.818C126.718 145.538 126.205 145.151 125.785 144.656C125.365 144.161 125.047 143.578 124.833 142.906C124.618 142.234 124.511 141.497 124.511 140.694V131.482H128.851V140.694C128.851 141.413 129.014 141.968 129.341 142.36C129.667 142.752 130.148 142.948 130.783 142.948C131.259 142.948 131.702 142.85 132.113 142.654C132.533 142.449 132.939 142.173 133.331 141.828V131.482H137.671ZM149.565 134.66C149.453 134.837 149.332 134.963 149.201 135.038C149.08 135.113 148.921 135.15 148.725 135.15C148.52 135.15 148.315 135.108 148.109 135.024C147.904 134.931 147.68 134.833 147.437 134.73C147.204 134.627 146.938 134.534 146.639 134.45C146.341 134.357 146 134.31 145.617 134.31C145.067 134.31 144.642 134.417 144.343 134.632C144.054 134.837 143.909 135.127 143.909 135.5C143.909 135.771 144.003 135.995 144.189 136.172C144.385 136.349 144.642 136.508 144.959 136.648C145.277 136.779 145.636 136.905 146.037 137.026C146.439 137.147 146.849 137.283 147.269 137.432C147.689 137.581 148.1 137.759 148.501 137.964C148.903 138.16 149.262 138.407 149.579 138.706C149.897 138.995 150.149 139.35 150.335 139.77C150.531 140.19 150.629 140.694 150.629 141.282C150.629 142.001 150.499 142.663 150.237 143.27C149.976 143.877 149.584 144.399 149.061 144.838C148.548 145.277 147.909 145.617 147.143 145.86C146.387 146.103 145.515 146.224 144.525 146.224C144.031 146.224 143.536 146.177 143.041 146.084C142.547 145.991 142.066 145.865 141.599 145.706C141.142 145.547 140.717 145.361 140.325 145.146C139.933 144.922 139.597 144.684 139.317 144.432L140.325 142.836C140.437 142.649 140.577 142.505 140.745 142.402C140.923 142.29 141.147 142.234 141.417 142.234C141.669 142.234 141.893 142.29 142.089 142.402C142.295 142.514 142.514 142.635 142.747 142.766C142.981 142.897 143.251 143.018 143.559 143.13C143.877 143.242 144.273 143.298 144.749 143.298C145.085 143.298 145.37 143.265 145.603 143.2C145.837 143.125 146.023 143.027 146.163 142.906C146.303 142.785 146.406 142.649 146.471 142.5C146.537 142.351 146.569 142.197 146.569 142.038C146.569 141.749 146.471 141.511 146.275 141.324C146.079 141.137 145.823 140.979 145.505 140.848C145.188 140.708 144.824 140.582 144.413 140.47C144.012 140.349 143.601 140.213 143.181 140.064C142.761 139.915 142.346 139.737 141.935 139.532C141.534 139.317 141.175 139.051 140.857 138.734C140.54 138.407 140.283 138.011 140.087 137.544C139.891 137.077 139.793 136.513 139.793 135.85C139.793 135.234 139.91 134.651 140.143 134.1C140.386 133.54 140.745 133.05 141.221 132.63C141.697 132.21 142.295 131.879 143.013 131.636C143.732 131.384 144.572 131.258 145.533 131.258C146.056 131.258 146.56 131.305 147.045 131.398C147.54 131.491 148.002 131.622 148.431 131.79C148.861 131.958 149.253 132.159 149.607 132.392C149.962 132.616 150.275 132.863 150.545 133.134L149.565 134.66ZM157.722 146.224C157.031 146.224 156.42 146.126 155.888 145.93C155.365 145.725 154.922 145.44 154.558 145.076C154.203 144.703 153.933 144.255 153.746 143.732C153.559 143.209 153.466 142.626 153.466 141.982V134.478H152.234C152.01 134.478 151.819 134.408 151.66 134.268C151.501 134.119 151.422 133.904 151.422 133.624V131.93L153.732 131.482L154.586 127.94C154.698 127.492 155.015 127.268 155.538 127.268H157.806V131.51H161.404V134.478H157.806V141.688C157.806 142.024 157.885 142.304 158.044 142.528C158.212 142.743 158.45 142.85 158.758 142.85C158.917 142.85 159.047 142.836 159.15 142.808C159.262 142.771 159.355 142.733 159.43 142.696C159.514 142.649 159.589 142.612 159.654 142.584C159.729 142.547 159.813 142.528 159.906 142.528C160.037 142.528 160.139 142.561 160.214 142.626C160.298 142.682 160.382 142.775 160.466 142.906L161.782 144.964C161.222 145.384 160.592 145.701 159.892 145.916C159.192 146.121 158.469 146.224 157.722 146.224ZM170.484 140.092C169.616 140.129 168.902 140.204 168.342 140.316C167.782 140.428 167.339 140.568 167.012 140.736C166.686 140.904 166.457 141.095 166.326 141.31C166.205 141.525 166.144 141.758 166.144 142.01C166.144 142.505 166.28 142.855 166.55 143.06C166.821 143.256 167.218 143.354 167.74 143.354C168.3 143.354 168.79 143.256 169.21 143.06C169.63 142.864 170.055 142.547 170.484 142.108V140.092ZM162.672 133.498C163.55 132.723 164.52 132.149 165.584 131.776C166.658 131.393 167.806 131.202 169.028 131.202C169.906 131.202 170.694 131.347 171.394 131.636C172.104 131.916 172.701 132.313 173.186 132.826C173.681 133.33 174.059 133.932 174.32 134.632C174.582 135.332 174.712 136.097 174.712 136.928V146H172.724C172.314 146 172.001 145.944 171.786 145.832C171.581 145.72 171.408 145.487 171.268 145.132L170.96 144.334C170.596 144.642 170.246 144.913 169.91 145.146C169.574 145.379 169.224 145.58 168.86 145.748C168.506 145.907 168.123 146.023 167.712 146.098C167.311 146.182 166.863 146.224 166.368 146.224C165.706 146.224 165.104 146.14 164.562 145.972C164.021 145.795 163.559 145.538 163.176 145.202C162.803 144.866 162.514 144.451 162.308 143.956C162.103 143.452 162 142.873 162 142.22C162 141.697 162.131 141.17 162.392 140.638C162.654 140.097 163.106 139.607 163.75 139.168C164.394 138.72 165.262 138.347 166.354 138.048C167.446 137.749 168.823 137.581 170.484 137.544V136.928C170.484 136.079 170.307 135.467 169.952 135.094C169.607 134.711 169.112 134.52 168.468 134.52C167.955 134.52 167.535 134.576 167.208 134.688C166.882 134.8 166.588 134.926 166.326 135.066C166.074 135.206 165.827 135.332 165.584 135.444C165.342 135.556 165.052 135.612 164.716 135.612C164.418 135.612 164.166 135.537 163.96 135.388C163.755 135.239 163.587 135.061 163.456 134.856L162.672 133.498ZM181.546 125.042V136.788H182.19C182.461 136.788 182.666 136.751 182.806 136.676C182.946 136.592 183.086 136.457 183.226 136.27L185.97 132.182C186.138 131.949 186.33 131.776 186.544 131.664C186.759 131.543 187.034 131.482 187.37 131.482H191.346L187.594 136.648C187.24 137.115 186.82 137.497 186.334 137.796C186.549 137.955 186.745 138.141 186.922 138.356C187.1 138.561 187.268 138.795 187.426 139.056L191.514 146H187.594C187.268 146 186.988 145.949 186.754 145.846C186.521 145.734 186.325 145.543 186.166 145.272L183.422 140.134C183.292 139.901 183.156 139.751 183.016 139.686C182.876 139.611 182.666 139.574 182.386 139.574H181.546V146H177.206V125.042H181.546ZM200.057 140.092C199.189 140.129 198.475 140.204 197.915 140.316C197.355 140.428 196.912 140.568 196.585 140.736C196.258 140.904 196.03 141.095 195.899 141.31C195.778 141.525 195.717 141.758 195.717 142.01C195.717 142.505 195.852 142.855 196.123 143.06C196.394 143.256 196.79 143.354 197.313 143.354C197.873 143.354 198.363 143.256 198.783 143.06C199.203 142.864 199.628 142.547 200.057 142.108V140.092ZM192.245 133.498C193.122 132.723 194.093 132.149 195.157 131.776C196.23 131.393 197.378 131.202 198.601 131.202C199.478 131.202 200.267 131.347 200.967 131.636C201.676 131.916 202.274 132.313 202.759 132.826C203.254 133.33 203.632 133.932 203.893 134.632C204.154 135.332 204.285 136.097 204.285 136.928V146H202.297C201.886 146 201.574 145.944 201.359 145.832C201.154 145.72 200.981 145.487 200.841 145.132L200.533 144.334C200.169 144.642 199.819 144.913 199.483 145.146C199.147 145.379 198.797 145.58 198.433 145.748C198.078 145.907 197.696 146.023 197.285 146.098C196.884 146.182 196.436 146.224 195.941 146.224C195.278 146.224 194.676 146.14 194.135 145.972C193.594 145.795 193.132 145.538 192.749 145.202C192.376 144.866 192.086 144.451 191.881 143.956C191.676 143.452 191.573 142.873 191.573 142.22C191.573 141.697 191.704 141.17 191.965 140.638C192.226 140.097 192.679 139.607 193.323 139.168C193.967 138.72 194.835 138.347 195.927 138.048C197.019 137.749 198.396 137.581 200.057 137.544V136.928C200.057 136.079 199.88 135.467 199.525 135.094C199.18 134.711 198.685 134.52 198.041 134.52C197.528 134.52 197.108 134.576 196.781 134.688C196.454 134.8 196.16 134.926 195.899 135.066C195.647 135.206 195.4 135.332 195.157 135.444C194.914 135.556 194.625 135.612 194.289 135.612C193.99 135.612 193.738 135.537 193.533 135.388C193.328 135.239 193.16 135.061 193.029 134.856L192.245 133.498ZM214.269 140.092C213.401 140.129 212.687 140.204 212.127 140.316C211.567 140.428 211.124 140.568 210.797 140.736C210.471 140.904 210.242 141.095 210.111 141.31C209.99 141.525 209.929 141.758 209.929 142.01C209.929 142.505 210.065 142.855 210.335 143.06C210.606 143.256 211.003 143.354 211.525 143.354C212.085 143.354 212.575 143.256 212.995 143.06C213.415 142.864 213.84 142.547 214.269 142.108V140.092ZM206.457 133.498C207.335 132.723 208.305 132.149 209.369 131.776C210.443 131.393 211.591 131.202 212.813 131.202C213.691 131.202 214.479 131.347 215.179 131.636C215.889 131.916 216.486 132.313 216.971 132.826C217.466 133.33 217.844 133.932 218.105 134.632C218.367 135.332 218.497 136.097 218.497 136.928V146H216.509C216.099 146 215.786 145.944 215.571 145.832C215.366 145.72 215.193 145.487 215.053 145.132L214.745 144.334C214.381 144.642 214.031 144.913 213.695 145.146C213.359 145.379 213.009 145.58 212.645 145.748C212.291 145.907 211.908 146.023 211.497 146.098C211.096 146.182 210.648 146.224 210.153 146.224C209.491 146.224 208.889 146.14 208.347 145.972C207.806 145.795 207.344 145.538 206.961 145.202C206.588 144.866 206.299 144.451 206.093 143.956C205.888 143.452 205.785 142.873 205.785 142.22C205.785 141.697 205.916 141.17 206.177 140.638C206.439 140.097 206.891 139.607 207.535 139.168C208.179 138.72 209.047 138.347 210.139 138.048C211.231 137.749 212.608 137.581 214.269 137.544V136.928C214.269 136.079 214.092 135.467 213.737 135.094C213.392 134.711 212.897 134.52 212.253 134.52C211.74 134.52 211.32 134.576 210.993 134.688C210.667 134.8 210.373 134.926 210.111 135.066C209.859 135.206 209.612 135.332 209.369 135.444C209.127 135.556 208.837 135.612 208.501 135.612C208.203 135.612 207.951 135.537 207.745 135.388C207.54 135.239 207.372 135.061 207.241 134.856L206.457 133.498ZM224.995 133.05C225.275 132.789 225.565 132.546 225.863 132.322C226.162 132.098 226.479 131.911 226.815 131.762C227.161 131.603 227.529 131.482 227.921 131.398C228.323 131.305 228.757 131.258 229.223 131.258C230.017 131.258 230.717 131.398 231.323 131.678C231.939 131.949 232.457 132.331 232.877 132.826C233.297 133.311 233.615 133.895 233.829 134.576C234.044 135.248 234.151 135.981 234.151 136.774V146H229.811V136.774C229.811 136.065 229.648 135.514 229.321 135.122C228.995 134.721 228.514 134.52 227.879 134.52C227.403 134.52 226.955 134.623 226.535 134.828C226.125 135.024 225.723 135.295 225.331 135.64V146H220.991V131.482H223.679C224.221 131.482 224.575 131.725 224.743 132.21L224.995 133.05Z" fill="white"/>
</g>
<defs>
<clipPath id="clip0_110_22">
<rect width="395" height="200" rx="15" fill="white"/>
</clipPath>
</defs>
</svg>
